# xmcd
#
# Track frame offsets: 
#        150
#        14392
#        33472
#        49875
#        68570
#        84615
#        99790
#        113722
#        130570
#        148280
#        163547
#        179365
#
# Disc length: 2597 seconds
#
# Revision: 3
# Processed by: cddbd v1.5.2PL0 Copyright (c) Steve Scherf et al.
# Submitted via: ExactAudioCopy v1.0b6
#
DISCID=980a230c
DTITLE=Billy Currington - Summer Forever
DYEAR=2015
DGENRE=Country
TTITLE0=Don't It
TTITLE1=Drinkin' Town With A Football Problem
TTITLE2=Wake Me Up
TTITLE3=Good Night feat. Jessie James Decker
TTITLE4=Jonesin'
TTITLE5=Give It To Me Straight
TTITLE6=It Don't Hurt Like It Used To
TTITLE7=Nowhere Town
TTITLE8=Do I Make You Wanna
TTITLE9=Sweet Love
TTITLE10=Soundtrack
TTITLE11=Summer Forever
EXTD=YEAR: 2015
EXTT0=
EXTT1=
EXTT2=
EXTT3=
EXTT4=
EXTT5=
EXTT6=
EXTT7=
EXTT8=
EXTT9=
EXTT10=
EXTT11=
PLAYORDER=
